<svg xmlns="http://www.w3.org/2000/svg"  viewBox="0 0 40 40" width="480px" height="480px"><path fill="#dff0fe" d="M20,38.5C9.799,38.5,1.5,30.201,1.5,20S9.799,1.5,20,1.5S38.5,9.799,38.5,20S30.201,38.5,20,38.5z"/><path fill="#4788c7" d="M20,2c9.925,0,18,8.075,18,18s-8.075,18-18,18S2,29.925,2,20S10.075,2,20,2 M20,1 C9.507,1,1,9.507,1,20s8.507,19,19,19s19-8.507,19-19S30.493,1,20,1L20,1z"/><g><path fill="#4788c7" d="M14.229,30V10h6.346c1.934,0,3.466,0.423,4.596,1.269c1.13,0.847,1.695,1.948,1.695,3.305 c0,1.134-0.321,2.12-0.962,2.957c-0.642,0.837-1.529,1.432-2.664,1.785v0.056c1.376,0.158,2.476,0.667,3.298,1.527 c0.823,0.861,1.234,1.978,1.234,3.354c0,1.711-0.674,3.096-2.022,4.156c-1.348,1.06-3.05,1.59-5.105,1.59H14.229z M17.534,12.664 v5.69h2.148c1.153,0,2.057-0.272,2.713-0.816c0.656-0.544,0.983-1.314,0.983-2.308c0-1.711-1.144-2.566-3.431-2.566H17.534z M17.534,21.018v6.332h2.831c1.236,0,2.192-0.286,2.866-0.858s1.011-1.36,1.011-2.364c0-2.074-1.437-3.11-4.31-3.11H17.534z"/></g></svg>